<svg width="1082" height="1082" viewBox="0 0 1082 1082" fill="none" xmlns="http://www.w3.org/2000/svg">
<g clip-path="url(#clip0_53_2)">
<path d="M1055.06 928.818C1055.06 935.778 1053.85 941.981 1051.44 947.426C1048.98 952.871 1045.35 957.18 1040.57 960.352C1035.74 963.477 1029.73 965.04 1022.53 965.04C1016.47 965.04 1011.38 963.927 1007.26 961.702C1003.14 959.476 999.828 956.446 997.318 952.611C994.809 948.776 992.915 944.42 991.636 939.543C990.358 934.618 989.458 929.457 988.937 924.06C988.275 917.715 987.659 912.601 987.091 908.719C986.475 904.836 985.576 902.019 984.392 900.267C983.208 898.515 981.456 897.639 979.136 897.639L978.71 897.639C974.212 897.639 970.732 899.06 968.27 901.901C965.808 904.694 964.577 908.671 964.577 913.832C964.577 919.277 965.784 923.61 968.199 926.83C970.566 930.049 973.549 932.18 977.148 933.222L974.875 961.205C968.246 959.784 962.517 956.991 957.687 952.824C952.811 948.657 949.07 943.283 946.466 936.702C943.814 930.073 942.489 922.402 942.489 913.69C942.489 907.63 943.199 901.83 944.619 896.29C946.04 890.703 948.241 885.755 951.224 881.446C954.207 877.09 958.043 873.657 962.73 871.148C967.37 868.638 972.934 867.384 979.42 867.384L1053 867.384L1053 896.077L1037.87 896.077L1037.87 896.929C1041.28 898.681 1044.29 901.025 1046.89 903.96C1049.45 906.896 1051.46 910.423 1052.93 914.543C1054.35 918.662 1055.06 923.42 1055.06 928.818ZM1034.18 920.153C1034.18 915.703 1033.3 911.773 1031.55 908.364C1029.75 904.955 1027.34 902.279 1024.31 900.338C1021.28 898.397 1017.84 897.426 1014.01 897.426L1002.43 897.426C1003.05 898.373 1003.62 899.675 1004.14 901.332C1004.61 902.942 1005.06 904.765 1005.49 906.801C1005.86 908.837 1006.22 910.873 1006.55 912.909C1006.84 914.945 1007.1 916.792 1007.33 918.449C1007.85 922 1008.68 925.101 1009.82 927.753C1010.95 930.404 1012.49 932.464 1014.43 933.932C1016.33 935.4 1018.7 936.134 1021.54 936.134C1025.66 936.134 1028.8 934.642 1030.98 931.659C1033.11 928.629 1034.18 924.794 1034.18 920.153ZM1053 843.911L943.909 843.911L943.909 814.578L962.943 814.578L962.943 813.442C956.172 811.453 951.059 808.115 947.602 803.428C944.098 798.74 942.347 793.342 942.347 787.234C942.347 785.719 942.441 784.086 942.631 782.334C942.82 780.582 943.08 779.043 943.412 777.717L970.259 777.717C969.832 779.138 969.454 781.103 969.122 783.612C968.791 786.122 968.625 788.418 968.625 790.501C968.625 794.952 969.596 798.929 971.537 802.433C973.431 805.89 976.082 808.636 979.491 810.672C982.901 812.661 986.83 813.655 991.281 813.655L1053 813.655L1053 843.911ZM1055.13 717.863C1055.13 728.895 1052.79 738.436 1048.1 746.485C1043.36 754.487 1036.78 760.666 1028.36 765.022C1019.88 769.378 1010.05 771.556 998.881 771.556C987.612 771.556 977.763 769.378 969.335 765.022C960.86 760.666 954.278 754.487 949.591 746.485C944.856 738.436 942.489 728.895 942.489 717.863C942.489 706.831 944.856 697.314 949.591 689.312C954.278 681.263 960.86 675.06 969.335 670.704C977.763 666.348 987.612 664.17 998.881 664.17C1010.05 664.17 1019.88 666.348 1028.36 670.704C1036.78 675.06 1043.36 681.263 1048.1 689.312C1052.79 697.314 1055.13 706.831 1055.13 717.863ZM1031.69 717.721C1031.69 712.702 1030.27 708.512 1027.43 705.15C1024.54 701.788 1020.61 699.255 1015.64 697.55C1010.67 695.799 1005.01 694.923 998.668 694.923C992.323 694.923 986.665 695.799 981.693 697.55C976.722 699.255 972.792 701.788 969.903 705.15C967.015 708.512 965.571 712.702 965.571 717.721C965.571 722.787 967.015 727.049 969.903 730.505C972.792 733.914 976.722 736.495 981.693 738.246C986.665 739.951 992.323 740.803 998.668 740.803C1005.01 740.803 1010.67 739.951 1015.64 738.246C1020.61 736.495 1024.54 733.914 1027.43 730.505C1030.27 727.049 1031.69 722.787 1031.69 717.721ZM1053 644.496L943.909 644.496L943.909 615.164L962.943 615.164L962.943 614.028C956.172 612.039 951.059 608.701 947.602 604.013C944.098 599.326 942.347 593.928 942.347 587.82C942.347 586.305 942.441 584.672 942.631 582.92C942.82 581.168 943.08 579.629 943.412 578.303L970.259 578.303C969.832 579.724 969.454 581.689 969.122 584.198C968.791 586.708 968.625 589.004 968.625 591.087C968.625 595.538 969.596 599.515 971.537 603.019C973.431 606.476 976.082 609.222 979.491 611.258C982.901 613.246 986.83 614.241 991.281 614.241L1053 614.241L1053 644.496ZM1055.06 534.678C1055.06 541.638 1053.85 547.84 1051.44 553.286C1048.98 558.731 1045.35 563.039 1040.57 566.212C1035.74 569.337 1029.73 570.899 1022.53 570.899C1016.47 570.899 1011.38 569.786 1007.26 567.561C1003.14 565.336 999.828 562.305 997.318 558.47C994.809 554.635 992.915 550.279 991.636 545.402C990.358 540.478 989.458 535.317 988.937 529.919C988.275 523.574 987.659 518.461 987.091 514.578C986.475 510.696 985.576 507.878 984.392 506.126C983.208 504.375 981.456 503.499 979.136 503.499L978.71 503.499C974.212 503.499 970.732 504.919 968.27 507.76C965.808 510.553 964.577 514.531 964.577 519.692C964.577 525.137 965.784 529.469 968.199 532.689C970.566 535.909 973.549 538.039 977.148 539.081L974.875 567.064C968.246 565.643 962.517 562.85 957.687 558.683C952.811 554.517 949.07 549.143 946.466 542.561C943.814 535.932 942.489 528.262 942.489 519.55C942.489 513.489 943.199 507.689 944.619 502.149C946.04 496.562 948.241 491.614 951.224 487.305C954.207 482.949 958.043 479.517 962.73 477.007C967.37 474.498 972.934 473.243 979.42 473.243L1053 473.243L1053 501.936L1037.87 501.936L1037.87 502.788C1041.28 504.54 1044.29 506.884 1046.89 509.82C1049.45 512.755 1051.46 516.283 1052.93 520.402C1054.35 524.521 1055.06 529.28 1055.06 534.678ZM1034.18 526.013C1034.18 521.562 1033.3 517.632 1031.55 514.223C1029.75 510.814 1027.34 508.139 1024.31 506.197C1021.28 504.256 1017.84 503.285 1014.01 503.285L1002.43 503.286C1003.05 504.232 1003.62 505.535 1004.14 507.192C1004.61 508.802 1005.06 510.625 1005.49 512.661C1005.86 514.696 1006.22 516.732 1006.55 518.768C1006.84 520.804 1007.1 522.651 1007.33 524.308C1007.85 527.859 1008.68 530.961 1009.82 533.612C1010.95 536.264 1012.49 538.323 1014.43 539.791C1016.33 541.259 1018.7 541.993 1021.54 541.993C1025.66 541.993 1028.8 540.501 1030.98 537.518C1033.11 534.488 1034.18 530.653 1034.18 526.013ZM1054.85 432.085C1054.85 436.773 1053.19 440.797 1049.87 444.159C1046.51 447.473 1042.49 449.131 1037.8 449.131C1033.16 449.131 1029.18 447.473 1025.87 444.159C1022.55 440.797 1020.9 436.773 1020.9 432.085C1020.9 427.54 1022.55 423.562 1025.87 420.153C1029.18 416.744 1033.16 415.04 1037.8 415.04C1040.93 415.04 1043.79 415.845 1046.39 417.455C1048.95 419.017 1051.01 421.077 1052.57 423.634C1054.09 426.19 1054.85 429.008 1054.85 432.085Z" fill="black"/>
<path d="M312.417 965H29C27.8954 965 26.9988 964.163 27.0099 963.059C27.6955 894.882 64.3609 733.404 206.948 616.718C349.054 500.425 522.585 530.969 594.466 561.752C595.796 562.322 597.225 561.326 597.225 559.878V509.195C593.33 469.458 559.365 390.451 454.668 392.321C351.598 394.162 318.59 468.647 314.616 507.388C314.51 508.424 313.647 509.195 312.606 509.195H29.1289C27.9752 509.195 27.0568 508.275 27.1355 507.124C36.5515 369.342 134.71 99.7085 454.668 107.151C776.238 114.631 880 387.345 880 516.056V963C880 964.105 879.105 965 878 965H599.225C598.12 965 597.226 964.138 597.209 963.033C596.446 914.122 567.186 820.077 454.668 820.077C342.176 820.077 314.42 914.08 314.433 963.001C314.433 964.118 313.534 965 312.417 965Z" fill="black" stroke="black" stroke-width="0.2"/>
</g>
<defs>
<clipPath id="clip0_53_2">
<rect width="1082" height="1082" fill="white"/>
</clipPath>
</defs>
</svg>
